<?xml version="1.0" standalone="no"?>
<!DOCTYPE svg PUBLIC "-//W3C//DTD SVG 20010904//EN"
 "http://www.w3.org/TR/2001/REC-SVG-20010904/DTD/svg10.dtd">
<svg version="1.0" xmlns="http://www.w3.org/2000/svg"
 width="196.000000pt" height="195.000000pt" viewBox="0 0 196.000000 195.000000"
 preserveAspectRatio="xMidYMid meet">

<g transform="translate(0.000000,195.000000) scale(0.100000,-0.100000)"
fill="#000000" stroke="none">
<path d="M875 1939 c-358 -38 -683 -288 -804 -619 -48 -133 -56 -179 -55 -350
0 -150 3 -173 28 -255 64 -212 178 -380 347 -510 248 -192 599 -250 899 -148
325 110 565 383 641 728 20 90 17 304 -4 397 -83 355 -346 634 -688 728 -63
17 -242 42 -274 38 -5 0 -46 -4 -90 -9z m226 -1138 c-16 -14 -36 -39 -44 -56
l-15 -29 -11 54 c-6 30 -22 120 -36 200 -15 79 -27 146 -29 147 -2 2 -29 -91
-61 -207 -32 -115 -61 -210 -65 -210 -3 0 -41 72 -85 161 -76 151 -81 160
-105 155 -14 -3 -70 -11 -126 -17 -148 -17 -206 2 -190 64 10 43 105 68 317
83 l95 6 30 -67 29 -67 84 289 c46 158 89 299 94 313 8 20 24 -57 78 -384 l69
-410 -29 -25z m442 171 c9 -8 17 -28 17 -43 0 -41 -42 -59 -169 -71 -58 -5
-109 -13 -112 -17 -3 -3 -14 -35 -24 -71 -53 -197 -141 -457 -151 -447 -2 2
-15 89 -29 193 l-24 189 21 43 c11 24 31 48 44 54 16 7 31 30 44 67 44 121 30
108 138 116 54 3 106 7 117 8 42 5 111 -6 128 -21z"/>
</g>
</svg>
